<svg width="24" height="24" viewBox="0 0 24 24" fill="none" xmlns="http://www.w3.org/2000/svg">
<path fill-rule="evenodd" clip-rule="evenodd" d="M12.0012 2.17169C14.2243 2.17169 16.4371 2.39931 18.6457 2.62873C19.5817 2.72915 20.4566 3.14219 21.129 3.80113C21.6138 4.2763 21.973 4.85934 22.1803 5.49777C22.324 5.72341 22.3183 6.00247 22.3512 6.26027L22.3516 6.26328C22.5773 8.08166 22.8071 10.0139 22.8071 12C22.8071 13.9877 22.5773 15.9184 22.3516 17.7367L22.3513 17.7395C22.2322 18.6735 21.8016 19.5399 21.129 20.1987C20.4564 20.8575 19.5106 21.2775 18.5744 21.3771C16.5076 21.5934 14.2478 21.8299 12.0012 21.8299C9.72517 21.8299 7.47937 21.5934 5.38891 21.3732C4.45315 21.2728 3.5464 20.8566 2.87406 20.1981C2.20173 19.5395 1.77094 18.6736 1.65124 17.7402L1.65081 17.7367C1.4251 15.9184 1.19531 13.9861 1.19531 12C1.19531 10.078 1.41453 8.16668 1.65115 6.26209C1.68415 6.0032 1.67817 5.72289 1.82293 5.49648C2.03035 4.85919 2.3892 4.27723 2.87345 3.8029C3.54605 3.14411 4.42125 2.7315 5.35744 2.63185L5.35901 2.63168C7.46669 2.41124 9.70398 2.17169 12.0012 2.17169ZM3.21444 7.57392C3.04337 9.0356 2.90531 10.5075 2.90531 12C2.90531 13.8663 3.12118 15.7004 3.34756 17.5243C3.41864 18.0758 3.67333 18.5873 4.07062 18.9765C4.46803 19.3657 4.99695 19.611 5.55001 19.6706C7.66508 19.8934 9.8154 20.1199 12.0012 20.1199C14.1574 20.1199 16.3221 19.8934 18.4118 19.6748C18.9653 19.6159 19.5348 19.3665 19.9324 18.9771C20.3298 18.5878 20.5843 18.076 20.6549 17.5242C20.8812 15.7004 21.0971 13.8679 21.0971 12C21.0971 10.5078 20.9591 9.03613 20.7881 7.57385L14.5017 12.5313C13.7893 13.0928 12.9083 13.3983 12.0012 13.3983C11.0941 13.3983 10.2133 13.0929 9.50089 12.5314L3.21444 7.57392ZM20.4164 5.68916C20.2942 5.44311 20.131 5.21741 19.9321 5.02242C19.5347 4.63298 19.0177 4.38876 18.4646 4.32912L18.4633 4.32898C16.3154 4.106 14.1632 3.88169 12.0012 3.88169C9.80888 3.88169 7.6617 4.11017 5.53773 4.33232C4.98456 4.39136 4.46745 4.63524 4.07001 5.02452C3.87144 5.21902 3.70854 5.44413 3.58645 5.68953L10.5594 11.1884C10.9702 11.5121 11.4782 11.6883 12.0012 11.6883C12.5243 11.6883 13.0322 11.5122 13.443 11.1884L20.4164 5.68916Z" fill="#4A5344"/>
</svg>
