<svg width="24" height="25" viewBox="0 0 24 25" fill="none" xmlns="http://www.w3.org/2000/svg">
<path fill-rule="evenodd" clip-rule="evenodd" d="M11.9991 2.5889C12.4713 2.5889 12.8541 2.97169 12.8541 3.4439V14.6186C14.2322 13.6233 15.4966 12.1993 16.1988 10.7959C16.4101 10.3736 16.9238 10.2026 17.346 10.4139C17.7683 10.6252 17.9394 11.1389 17.728 11.5611C16.6534 13.7088 14.5339 15.8281 12.3833 16.9043C12.1425 17.0248 11.859 17.0248 11.6181 16.9043C9.46765 15.8282 7.34802 13.7104 6.27169 11.5577C6.06051 11.1354 6.2317 10.6218 6.65405 10.4106C7.07641 10.1994 7.58998 10.3706 7.80116 10.793C8.50405 12.1988 9.76726 13.6215 11.1441 14.6164V3.4439C11.1441 2.97169 11.5269 2.5889 11.9991 2.5889ZM2.15969 17.0535C2.63189 17.0535 3.01469 17.4363 3.01469 17.9085V19.4226C3.01469 19.9988 3.2435 20.5514 3.65082 20.959C4.05813 21.3665 4.61062 21.5956 5.1868 21.5959H18.8119C19.3883 21.5959 19.9411 21.3669 20.3486 20.9594C20.7562 20.5518 20.9852 19.999 20.9852 19.4226V17.9101C20.9852 17.4379 21.368 17.0551 21.8402 17.0551C22.3124 17.0551 22.6952 17.4379 22.6952 17.9101V19.4226C22.6952 20.4525 22.286 21.4403 21.5578 22.1685C20.8295 22.8968 19.8418 23.3059 18.8119 23.3059H5.18635C4.1568 23.3054 3.16916 22.896 2.44134 22.1678C1.71353 21.4396 1.30469 20.4522 1.30469 19.4226V17.9085C1.30469 17.4363 1.68748 17.0535 2.15969 17.0535Z" fill="#4A5344"/>
</svg>
