<svg width="24" height="24" viewBox="0 0 24 24" fill="none" xmlns="http://www.w3.org/2000/svg">
<path d="M3.23741 11.4218C8.06923 9.31668 11.2912 7.92884 12.9033 7.2583C17.5063 5.34378 18.4627 5.01121 19.0861 5.00011C19.2232 4.99781 19.5298 5.03179 19.7284 5.19293C19.8961 5.32899 19.9422 5.51279 19.9643 5.64179C19.9864 5.77079 20.0139 6.06465 19.992 6.29427C19.8697 7.57897 19.5481 9.76214 19.1872 12C18.8118 14.3275 18.3941 16.7141 18.1142 18.2106C17.8818 19.4526 17.4244 19.8691 16.9815 19.9098C16.0189 19.9984 15.288 19.2737 14.3558 18.6626C12.897 17.7064 12.0729 17.1111 10.6569 16.178C9.02048 15.0996 10.0813 14.5069 11.0139 13.5383C11.258 13.2848 15.4988 9.42739 15.5809 9.07747C15.5912 9.0337 15.6007 8.87057 15.5038 8.78443C15.4069 8.69829 15.2639 8.72775 15.1606 8.75117C15.0143 8.78438 12.6839 10.3247 8.16938 13.3721C7.5079 13.8264 6.90875 14.0477 6.37193 14.0361C5.78013 14.0233 4.64175 13.7015 3.79548 13.4264C2.75749 13.089 1.93252 12.9106 2.00436 12.3376C2.04178 12.0391 2.45279 11.7338 3.23741 11.4218Z" fill="#4A5344"/>
</svg>
